<svg version="1.1" xmlns="http://www.w3.org/2000/svg" xmlns:xlink="http://www.w3.org/1999/xlink" width="386" height="264.625"><defs><linearGradient id="LfPTtRruWixv" x1="1199.4869995366898px" x2="752.7869988214343px" y1="1232.7057137794081px" y2="625.1057109183852px" gradientUnits="userSpaceOnUse"><stop offset="0" stop-color="rgb(132,80,186)" stop-opacity="1"/><stop offset="1" stop-color="rgb(211,211,211)" stop-opacity="1"/></linearGradient><linearGradient id="flOLCMkwGpKm" x1="2184.9870002519438px" x2="1681.98699953669px" y1="1231.6057144946637px" y2="1845.305716640431px" gradientUnits="userSpaceOnUse"><stop offset="0" stop-color="rgb(255,193,7)" stop-opacity="1"/><stop offset="1" stop-color="rgb(211,211,211)" stop-opacity="1"/></linearGradient><linearGradient id="wDCrOBuQUnns" x1="1581.98699953669px" x2="2284.9870002519438px" y1="566.6057109183852px" y2="1517.1057159251754px" gradientUnits="userSpaceOnUse"><stop offset="0" stop-color="rgb(255,193,7)" stop-opacity="1"/><stop offset="1" stop-color="rgb(211,211,211)" stop-opacity="1"/></linearGradient><linearGradient id="cbwBzhVQnxyE" x1="1581.98699953669px" x2="2284.9870002519438px" y1="699.6057116336409px" y2="1517.1057159251754px" gradientUnits="userSpaceOnUse"><stop offset="0" stop-color="rgb(255,193,7)" stop-opacity="1"/><stop offset="1" stop-color="rgb(211,211,211)" stop-opacity="1"/></linearGradient><linearGradient id="ZnFPwZPMKQzu" x1="2284.9870002519438px" x2="1581.98699953669px" y1="1517.1057159251754px" y2="965.6057130641524px" gradientUnits="userSpaceOnUse"><stop offset="0" stop-color="rgb(211,211,211)" stop-opacity="1"/><stop offset="1" stop-color="rgb(29,122,218)" stop-opacity="1"/></linearGradient><linearGradient id="QNTAoGAeFwZH" x1="2284.9870002519438px" x2="1581.98699953669px" y1="1517.1057159251754px" y2="832.6057123488966px" gradientUnits="userSpaceOnUse"><stop offset="0" stop-color="rgb(211,211,211)" stop-opacity="1"/><stop offset="1" stop-color="rgb(29,122,218)" stop-opacity="1"/></linearGradient><linearGradient id="HnIcupiTayxv" x1="2284.9870002519438px" x2="1681.98699953669px" y1="1595.1057159251754px" y2="1845.305716640431px" gradientUnits="userSpaceOnUse"><stop offset="0" stop-color="rgb(211,211,211)" stop-opacity="1"/><stop offset="1" stop-color="rgb(211,211,211)" stop-opacity="1"/></linearGradient><linearGradient id="OTtZvGygZqel" x1="2184.9870002519438px" x2="1681.98699953669px" y1="832.6057123488968px" y2="1845.305716640431px" gradientUnits="userSpaceOnUse"><stop offset="0" stop-color="rgb(255,193,7)" stop-opacity="1"/><stop offset="1" stop-color="rgb(211,211,211)" stop-opacity="1"/></linearGradient><linearGradient id="IRnCMdXOiMai" x1="1681.98699953669px" x2="1581.98699953669px" y1="1845.305716640431px" y2="965.6057130641524px" gradientUnits="userSpaceOnUse"><stop offset="0" stop-color="rgb(211,211,211)" stop-opacity="1"/><stop offset="1" stop-color="rgb(29,122,218)" stop-opacity="1"/></linearGradient><linearGradient id="qmqKTPEtTTDn" x1="1681.98699953669px" x2="1581.98699953669px" y1="1845.305716640431px" y2="1231.6057144946637px" gradientUnits="userSpaceOnUse"><stop offset="0" stop-color="rgb(211,211,211)" stop-opacity="1"/><stop offset="1" stop-color="rgb(29,122,218)" stop-opacity="1"/></linearGradient><linearGradient id="AZlBmnTpGOGz" x1="1681.98699953669px" x2="1581.98699953669px" y1="1845.305716640431px" y2="1497.6057159251754px" gradientUnits="userSpaceOnUse"><stop offset="0" stop-color="rgb(211,211,211)" stop-opacity="1"/><stop offset="1" stop-color="rgb(29,122,218)" stop-opacity="1"/></linearGradient></defs><g transform="translate(20.151625147320715,-21.82571386479816) scale(0.125,0.125)"><path fill="rgb(244,236,255)" stroke="rgb(255,255,255)" paint-order="fill stroke markers" d=" M 1382.636999536689 176.60571091838528 L 2916.4870002519438 176.60571091838528 L 2916.4870002519438 176.60571091838528 A 8 8 0 0 1 2924.4870002519438 184.60571091838528 L 2924.4870002519438 2280.805716640431 L 2924.4870002519438 2280.805716640431 A 8 8 0 0 1 2916.4870002519438 2288.805716640431 L -151.21300117856572 2288.805716640431 L -151.21300117856572 2288.805716640431 A 8 8 0 0 1 -159.21300117856572 2280.805716640431 L -159.21300117856572 184.60571091838528 L -159.21300117856572 184.60571091838528 A 8 8 0 0 1 -151.21300117856572 176.60571091838528 L 1382.636999536689 176.60571091838528 Z" fill-opacity="1" stroke-opacity="1" stroke-miterlimit="10" stroke-width="2"/><text fill="rgb(0,0,0)" stroke="none" font-family="Avenir, Helvetica, Arial, sans-serif" font-size="32px" font-style="normal" font-weight="bold" text-decoration="normal" x="1382.636999536689" y="251.60571091838528" text-anchor="middle" dominant-baseline="text-after-edge" fill-opacity="1">.</text><path fill="rgb(255,255,255)" stroke="rgb(211,211,211)" paint-order="fill stroke markers" d=" M 478.7869988214343 381.1057109183852 L 907.2869988214343 381.1057109183852 L 907.2869988214343 381.1057109183852 A 8 8 0 0 1 915.2869988214343 389.1057109183852 L 915.2869988214343 1146.8057116336408 L 915.2869988214343 1146.8057116336408 A 8 8 0 0 1 907.2869988214343 1154.8057116336408 L 50.28699882143428 1154.8057116336408 L 50.28699882143428 1154.8057116336408 A 8 8 0 0 1 42.28699882143428 1146.8057116336408 L 42.28699882143428 389.1057109183852 L 42.28699882143428 389.1057109183852 A 8 8 0 0 1 50.28699882143428 381.1057109183852 L 478.7869988214343 381.1057109183852 Z" fill-opacity="1" stroke-opacity="1" stroke-miterlimit="10"/><text fill="rgb(0,0,0)" stroke="none" font-family="Avenir, Helvetica, Arial, sans-serif" font-size="32px" font-style="normal" font-weight="bold" text-decoration="normal" x="478.7869988214343" y="456.1057109183852" text-anchor="middle" dominant-baseline="text-after-edge" fill-opacity="1">unknown file</text><path fill="rgb(255,255,255)" stroke="rgb(132,80,186)" paint-order="fill stroke markers" d=" M 1961.4869998943168 382.6057109183853 L 2710.4870002519438 382.6057109183853 L 2710.4870002519438 382.6057109183853 A 8 8 0 0 1 2718.4870002519438 390.6057109183853 L 2718.4870002519438 2074.805716640431 L 2718.4870002519438 2074.805716640431 A 8 8 0 0 1 2710.4870002519438 2082.805716640431 L 1212.4869995366898 2082.805716640431 L 1212.4869995366898 2082.805716640431 A 8 8 0 0 1 1204.4869995366898 2074.805716640431 L 1204.4869995366898 390.6057109183853 L 1204.4869995366898 390.6057109183853 A 8 8 0 0 1 1212.4869995366898 382.6057109183853 L 1961.4869998943168 382.6057109183853 Z" fill-opacity="1" stroke-opacity="1" stroke-miterlimit="10" stroke-width="10"/><text fill="rgb(132,80,186)" stroke="none" font-family="Avenir, Helvetica, Arial, sans-serif" font-size="32px" font-style="normal" font-weight="bold" text-decoration="normal" x="1961.4869998943168" y="442.6057109183853" text-anchor="middle" dominant-baseline="text-after-edge" fill-opacity="1">container_app</text><path fill="rgb(255,255,255)" stroke="rgb(0,0,0)" paint-order="fill stroke markers" d=" M 478.7869988214343 855.305711633641 L 803.7869988214343 855.305711633641 L 803.7869988214343 855.305711633641 A 8 8 0 0 1 811.7869988214343 863.305711633641 L 811.7869988214343 1043.3057116336408 L 811.7869988214343 1043.3057116336408 A 8 8 0 0 1 803.7869988214343 1051.3057116336408 L 153.78699882143428 1051.3057116336408 L 153.78699882143428 1051.3057116336408 A 8 8 0 0 1 145.78699882143428 1043.3057116336408 L 145.78699882143428 863.305711633641 L 145.78699882143428 863.305711633641 A 8 8 0 0 1 153.78699882143428 855.305711633641 L 478.7869988214343 855.305711633641 Z" fill-opacity="1" stroke-opacity="1" stroke-miterlimit="10" stroke-width="5"/><rect fill="rgb(255,255,255)" stroke="none" x="276.7869988214343" y="806.305711633641" width="404" height="96" fill-opacity="1"/><text fill="rgb(0,0,0)" stroke="none" font-family="Avenir, Helvetica, Arial, sans-serif" font-size="32px" font-style="normal" font-weight="bold" text-decoration="normal" x="478.7869988214343" y="870.305711633641" text-anchor="middle" dominant-baseline="text-after-edge" fill-opacity="1">azurerm_client_config</text><path fill="rgb(255,255,255)" stroke="rgb(0,0,0)" paint-order="fill stroke markers" d=" M 478.7869988214343 530.1057109183852 L 800.7869988214343 530.1057109183852 L 800.7869988214343 530.1057109183852 A 8 8 0 0 1 808.7869988214343 538.1057109183852 L 808.7869988214343 712.1057109183852 L 808.7869988214343 712.1057109183852 A 8 8 0 0 1 800.7869988214343 720.1057109183852 L 156.78699882143428 720.1057109183852 L 156.78699882143428 720.1057109183852 A 8 8 0 0 1 148.78699882143428 712.1057109183852 L 148.78699882143428 538.1057109183852 L 148.78699882143428 538.1057109183852 A 8 8 0 0 1 156.78699882143428 530.1057109183852 L 478.7869988214343 530.1057109183852 Z" fill-opacity="1" stroke-opacity="1" stroke-miterlimit="10" stroke-width="5"/><rect fill="rgb(255,255,255)" stroke="none" x="253.78699882143428" y="481.10571091838517" width="450" height="96" fill-opacity="1"/><text fill="rgb(0,0,0)" stroke="none" font-family="Avenir, Helvetica, Arial, sans-serif" font-size="32px" font-style="normal" font-weight="bold" text-decoration="normal" x="478.7869988214343" y="545.1057109183852" text-anchor="middle" dominant-baseline="text-after-edge" fill-opacity="1">azurerm_resource_group</text><path fill="rgb(255,255,255)" stroke="rgb(0,0,0)" paint-order="fill stroke markers" d=" M 2284.9870002519438 1461.1057159251754 L 2606.9870002519438 1461.1057159251754 L 2606.9870002519438 1461.1057159251754 A 8 8 0 0 1 2614.9870002519438 1469.1057159251754 L 2614.9870002519438 1643.1057159251754 L 2614.9870002519438 1643.1057159251754 A 8 8 0 0 1 2606.9870002519438 1651.1057159251754 L 1962.9870002519438 1651.1057159251754 L 1962.9870002519438 1651.1057159251754 A 8 8 0 0 1 1954.9870002519438 1643.1057159251754 L 1954.9870002519438 1469.1057159251754 L 1954.9870002519438 1469.1057159251754 A 8 8 0 0 1 1962.9870002519438 1461.1057159251754 L 2284.9870002519438 1461.1057159251754 Z" fill-opacity="1" stroke-opacity="1" stroke-miterlimit="10" stroke-width="5"/><rect fill="rgb(255,255,255)" stroke="none" x="2072.4870002519438" y="1412.1057159251754" width="425" height="96" fill-opacity="1"/><text fill="rgb(0,0,0)" stroke="none" font-family="Avenir, Helvetica, Arial, sans-serif" font-size="32px" font-style="normal" font-weight="bold" text-decoration="normal" x="2284.9870002519438" y="1476.1057159251754" text-anchor="middle" dominant-baseline="text-after-edge" fill-opacity="1">azurerm_container_app</text><path fill="rgb(255,255,255)" stroke="rgb(0,0,0)" paint-order="fill stroke markers" d=" M 1681.98699953669 1789.305716640431 L 2003.98699953669 1789.305716640431 L 2003.98699953669 1789.305716640431 A 8 8 0 0 1 2011.98699953669 1797.305716640431 L 2011.98699953669 1971.305716640431 L 2011.98699953669 1971.305716640431 A 8 8 0 0 1 2003.98699953669 1979.305716640431 L 1359.98699953669 1979.305716640431 L 1359.98699953669 1979.305716640431 A 8 8 0 0 1 1351.98699953669 1971.305716640431 L 1351.98699953669 1797.305716640431 L 1351.98699953669 1797.305716640431 A 8 8 0 0 1 1359.98699953669 1789.305716640431 L 1681.98699953669 1789.305716640431 Z" fill-opacity="1" stroke-opacity="1" stroke-miterlimit="10" stroke-width="5"/><rect fill="rgb(255,255,255)" stroke="none" x="1364.48699953669" y="1740.305716640431" width="635" height="96" fill-opacity="1"/><text fill="rgb(0,0,0)" stroke="none" font-family="Avenir, Helvetica, Arial, sans-serif" font-size="32px" font-style="normal" font-weight="bold" text-decoration="normal" x="1681.98699953669" y="1804.305716640431" text-anchor="middle" dominant-baseline="text-after-edge" fill-opacity="1">azurerm_container_app_environment</text><path fill="none" stroke="url(#LfPTtRruWixv)" paint-order="fill stroke markers" d=" M 1199.4869995366898 1232.7057137794081 L 976.1369991790622 1232.7057137794081 L 976.1369991790622 625.1057109183852 L 752.7869988214343 625.1057109183852" stroke-linejoin="round" stroke-miterlimit="10" stroke-width="10"/><path fill="none" stroke="url(#flOLCMkwGpKm)" paint-order="fill stroke markers" d=" M 2184.9870002519438 1231.6057144946637 L 2184.9870002519438 1538.4557155675475 L 1681.98699953669 1538.4557155675475 L 1681.98699953669 1845.305716640431" stroke-linejoin="round" stroke-miterlimit="10" stroke-width="10"/><path fill="none" stroke="url(#wDCrOBuQUnns)" paint-order="fill stroke markers" d=" M 1581.98699953669 566.6057109183852 L 1581.98699953669 1041.8557134217804 L 2284.9870002519438 1041.8557134217804 L 2284.9870002519438 1517.1057159251754" stroke-linejoin="round" stroke-miterlimit="10" stroke-width="10"/><path fill="none" stroke="url(#cbwBzhVQnxyE)" paint-order="fill stroke markers" d=" M 1581.98699953669 699.6057116336409 L 1581.98699953669 1108.3557137794082 L 2284.9870002519438 1108.3557137794082 L 2284.9870002519438 1517.1057159251754" stroke-linejoin="round" stroke-miterlimit="10" stroke-width="10"/><path fill="none" stroke="url(#ZnFPwZPMKQzu)" paint-order="fill stroke markers" d=" M 2284.9870002519438 1517.1057159251754 L 2284.9870002519438 1241.355714494664 L 1581.98699953669 1241.355714494664 L 1581.98699953669 965.6057130641524" stroke-linejoin="round" stroke-miterlimit="10" stroke-width="10"/><path fill="none" stroke="url(#QNTAoGAeFwZH)" paint-order="fill stroke markers" d=" M 2284.9870002519438 1517.1057159251754 L 2284.9870002519438 1174.855714137036 L 1581.98699953669 1174.855714137036 L 1581.98699953669 832.6057123488966" stroke-linejoin="round" stroke-miterlimit="10" stroke-width="10"/><path fill="none" stroke="url(#HnIcupiTayxv)" paint-order="fill stroke markers" d=" M 2284.9870002519438 1595.1057159251754 L 2284.9870002519438 1720.2057162828032 L 1681.98699953669 1720.2057162828032 L 1681.98699953669 1845.305716640431" stroke-linejoin="round" stroke-miterlimit="10" stroke-width="10"/><path fill="none" stroke="url(#OTtZvGygZqel)" paint-order="fill stroke markers" d=" M 2184.9870002519438 832.6057123488968 L 2184.9870002519438 1338.9557144946639 L 1681.98699953669 1338.9557144946639 L 1681.98699953669 1845.305716640431" stroke-linejoin="round" stroke-miterlimit="10" stroke-width="10"/><path fill="none" stroke="url(#IRnCMdXOiMai)" paint-order="fill stroke markers" d=" M 1681.98699953669 1845.305716640431 L 1681.98699953669 1405.4557148522917 L 1581.98699953669 1405.4557148522917 L 1581.98699953669 965.6057130641524" stroke-linejoin="round" stroke-miterlimit="10" stroke-width="10"/><path fill="none" stroke="url(#qmqKTPEtTTDn)" paint-order="fill stroke markers" d=" M 1681.98699953669 1845.305716640431 L 1681.98699953669 1538.4557155675475 L 1581.98699953669 1538.4557155675475 L 1581.98699953669 1231.6057144946637" stroke-linejoin="round" stroke-miterlimit="10" stroke-width="10"/><path fill="none" stroke="url(#AZlBmnTpGOGz)" paint-order="fill stroke markers" d=" M 1681.98699953669 1845.305716640431 L 1681.98699953669 1671.4557162828032 L 1581.98699953669 1671.4557162828032 L 1581.98699953669 1497.6057159251754" stroke-linejoin="round" stroke-miterlimit="10" stroke-width="10"/><path fill="rgb(255,236,236)" stroke="rgb(220,71,125)" paint-order="fill stroke markers" d=" M 478.7869988214343 914.305711633641 L 744.7869988214343 914.305711633641 L 744.7869988214343 914.305711633641 A 8 8 0 0 1 752.7869988214343 922.305711633641 L 752.7869988214343 984.305711633641 L 752.7869988214343 984.305711633641 A 8 8 0 0 1 744.7869988214343 992.305711633641 L 212.78699882143428 992.305711633641 L 212.78699882143428 992.305711633641 A 8 8 0 0 1 204.78699882143428 984.305711633641 L 204.78699882143428 922.305711633641 L 204.78699882143428 922.305711633641 A 8 8 0 0 1 212.78699882143428 914.305711633641 L 478.7869988214343 914.305711633641 Z" fill-opacity="1" stroke-opacity="1" stroke-miterlimit="10" stroke-width="5"/><text fill="rgb(0,0,0)" stroke="none" font-family="Avenir, Helvetica, Arial, sans-serif" font-size="32px" font-style="normal" font-weight="bold" text-decoration="normal" x="478.7869988214343" y="969.305711633641" text-anchor="middle" dominant-baseline="text-after-edge" fill-opacity="1">context</text><path fill="rgb(40,167,69)" stroke="none" paint-order="stroke fill markers" d=" M 478.7869988214343 586.1057109183852 L 744.7869988214343 586.1057109183852 L 744.7869988214343 586.1057109183852 A 8 8 0 0 1 752.7869988214343 594.1057109183852 L 752.7869988214343 656.1057109183852 L 752.7869988214343 656.1057109183852 A 8 8 0 0 1 744.7869988214343 664.1057109183852 L 212.78699882143428 664.1057109183852 L 212.78699882143428 664.1057109183852 A 8 8 0 0 1 204.78699882143428 656.1057109183852 L 204.78699882143428 594.1057109183852 L 204.78699882143428 594.1057109183852 A 8 8 0 0 1 212.78699882143428 586.1057109183852 L 478.7869988214343 586.1057109183852 Z" fill-opacity="1"/><text fill="rgb(255,255,255)" stroke="none" font-family="Avenir, Helvetica, Arial, sans-serif" font-size="32px" font-style="normal" font-weight="bold" text-decoration="normal" x="478.7869988214343" y="641.1057109183852" text-anchor="middle" dominant-baseline="text-after-edge" fill-opacity="1">test</text><path fill="rgb(255,247,224)" stroke="rgb(255,193,7)" paint-order="fill stroke markers" d=" M 1581.98699953669 486.10571091838517 L 1847.98699953669 486.10571091838517 L 1847.98699953669 486.10571091838517 A 8 8 0 0 1 1855.98699953669 494.10571091838517 L 1855.98699953669 556.1057109183852 L 1855.98699953669 556.1057109183852 A 8 8 0 0 1 1847.98699953669 564.1057109183852 L 1315.98699953669 564.1057109183852 L 1315.98699953669 564.1057109183852 A 8 8 0 0 1 1307.98699953669 556.1057109183852 L 1307.98699953669 494.10571091838517 L 1307.98699953669 494.10571091838517 A 8 8 0 0 1 1315.98699953669 486.10571091838517 L 1581.98699953669 486.10571091838517 Z" fill-opacity="1" stroke-opacity="1" stroke-miterlimit="10" stroke-width="5"/><text fill="rgb(0,0,0)" stroke="none" font-family="Avenir, Helvetica, Arial, sans-serif" font-size="32px" font-style="normal" font-weight="bold" text-decoration="normal" x="1581.98699953669" y="541.1057109183852" text-anchor="middle" dominant-baseline="text-after-edge" fill-opacity="1">container_app_fqdn</text><path fill="rgb(225,240,255)" stroke="rgb(29,122,218)" paint-order="fill stroke markers" d=" M 2184.9870002519438 486.10571091838517 L 2450.9870002519438 486.10571091838517 L 2450.9870002519438 486.10571091838517 A 8 8 0 0 1 2458.9870002519438 494.10571091838517 L 2458.9870002519438 556.1057109183852 L 2458.9870002519438 556.1057109183852 A 8 8 0 0 1 2450.9870002519438 564.1057109183852 L 1918.9870002519438 564.1057109183852 L 1918.9870002519438 564.1057109183852 A 8 8 0 0 1 1910.9870002519438 556.1057109183852 L 1910.9870002519438 494.10571091838517 L 1910.9870002519438 494.10571091838517 A 8 8 0 0 1 1918.9870002519438 486.10571091838517 L 2184.9870002519438 486.10571091838517 Z" fill-opacity="1" stroke-opacity="1" stroke-miterlimit="10" stroke-width="5"/><text fill="rgb(0,0,0)" stroke="none" font-family="Avenir, Helvetica, Arial, sans-serif" font-size="32px" font-style="normal" font-weight="bold" text-decoration="normal" x="2184.9870002519438" y="541.1057109183852" text-anchor="middle" dominant-baseline="text-after-edge" fill-opacity="1">private_networking_enabled</text><path fill="rgb(255,247,224)" stroke="rgb(255,193,7)" paint-order="fill stroke markers" d=" M 1581.98699953669 619.1057116336409 L 1847.98699953669 619.1057116336409 L 1847.98699953669 619.1057116336409 A 8 8 0 0 1 1855.98699953669 627.1057116336409 L 1855.98699953669 689.1057116336409 L 1855.98699953669 689.1057116336409 A 8 8 0 0 1 1847.98699953669 697.1057116336409 L 1315.98699953669 697.1057116336409 L 1315.98699953669 697.1057116336409 A 8 8 0 0 1 1307.98699953669 689.1057116336409 L 1307.98699953669 627.1057116336409 L 1307.98699953669 627.1057116336409 A 8 8 0 0 1 1315.98699953669 619.1057116336409 L 1581.98699953669 619.1057116336409 Z" fill-opacity="1" stroke-opacity="1" stroke-miterlimit="10" stroke-width="5"/><text fill="rgb(0,0,0)" stroke="none" font-family="Avenir, Helvetica, Arial, sans-serif" font-size="32px" font-style="normal" font-weight="bold" text-decoration="normal" x="1581.98699953669" y="674.1057116336409" text-anchor="middle" dominant-baseline="text-after-edge" fill-opacity="1">container_app_name</text><path fill="rgb(225,240,255)" stroke="rgb(29,122,218)" paint-order="fill stroke markers" d=" M 2184.9870002519438 619.1057116336409 L 2450.9870002519438 619.1057116336409 L 2450.9870002519438 619.1057116336409 A 8 8 0 0 1 2458.9870002519438 627.1057116336409 L 2458.9870002519438 689.1057116336409 L 2458.9870002519438 689.1057116336409 A 8 8 0 0 1 2450.9870002519438 697.1057116336409 L 1918.9870002519438 697.1057116336409 L 1918.9870002519438 697.1057116336409 A 8 8 0 0 1 1910.9870002519438 689.1057116336409 L 1910.9870002519438 627.1057116336409 L 1910.9870002519438 627.1057116336409 A 8 8 0 0 1 1918.9870002519438 619.1057116336409 L 2184.9870002519438 619.1057116336409 Z" fill-opacity="1" stroke-opacity="1" stroke-miterlimit="10" stroke-width="5"/><text fill="rgb(0,0,0)" stroke="none" font-family="Avenir, Helvetica, Arial, sans-serif" font-size="32px" font-style="normal" font-weight="bold" text-decoration="normal" x="2184.9870002519438" y="674.1057116336409" text-anchor="middle" dominant-baseline="text-after-edge" fill-opacity="1">container_app_monitoring_metrics</text><path fill="rgb(225,240,255)" stroke="rgb(29,122,218)" paint-order="fill stroke markers" d=" M 1581.98699953669 752.1057123488966 L 1847.98699953669 752.1057123488966 L 1847.98699953669 752.1057123488966 A 8 8 0 0 1 1855.98699953669 760.1057123488966 L 1855.98699953669 822.1057123488966 L 1855.98699953669 822.1057123488966 A 8 8 0 0 1 1847.98699953669 830.1057123488966 L 1315.98699953669 830.1057123488966 L 1315.98699953669 830.1057123488966 A 8 8 0 0 1 1307.98699953669 822.1057123488966 L 1307.98699953669 760.1057123488966 L 1307.98699953669 760.1057123488966 A 8 8 0 0 1 1315.98699953669 752.1057123488966 L 1581.98699953669 752.1057123488966 Z" fill-opacity="1" stroke-opacity="1" stroke-miterlimit="10" stroke-width="5"/><text fill="rgb(0,0,0)" stroke="none" font-family="Avenir, Helvetica, Arial, sans-serif" font-size="32px" font-style="normal" font-weight="bold" text-decoration="normal" x="1581.98699953669" y="807.1057123488966" text-anchor="middle" dominant-baseline="text-after-edge" fill-opacity="1">container_app_revision_mode</text><path fill="rgb(40,167,69)" stroke="none" paint-order="stroke fill markers" d=" M 2284.9870002519438 1517.1057159251754 L 2550.9870002519438 1517.1057159251754 L 2550.9870002519438 1517.1057159251754 A 8 8 0 0 1 2558.9870002519438 1525.1057159251754 L 2558.9870002519438 1587.1057159251754 L 2558.9870002519438 1587.1057159251754 A 8 8 0 0 1 2550.9870002519438 1595.1057159251754 L 2018.9870002519438 1595.1057159251754 L 2018.9870002519438 1595.1057159251754 A 8 8 0 0 1 2010.9870002519438 1587.1057159251754 L 2010.9870002519438 1525.1057159251754 L 2010.9870002519438 1525.1057159251754 A 8 8 0 0 1 2018.9870002519438 1517.1057159251754 L 2284.9870002519438 1517.1057159251754 Z" fill-opacity="1"/><text fill="rgb(255,255,255)" stroke="none" font-family="Avenir, Helvetica, Arial, sans-serif" font-size="32px" font-style="normal" font-weight="bold" text-decoration="normal" x="2284.9870002519438" y="1572.1057159251754" text-anchor="middle" dominant-baseline="text-after-edge" fill-opacity="1">container_app</text><path fill="rgb(40,167,69)" stroke="none" paint-order="stroke fill markers" d=" M 1681.98699953669 1845.305716640431 L 1947.98699953669 1845.305716640431 L 1947.98699953669 1845.305716640431 A 8 8 0 0 1 1955.98699953669 1853.305716640431 L 1955.98699953669 1915.305716640431 L 1955.98699953669 1915.305716640431 A 8 8 0 0 1 1947.98699953669 1923.305716640431 L 1415.98699953669 1923.305716640431 L 1415.98699953669 1923.305716640431 A 8 8 0 0 1 1407.98699953669 1915.305716640431 L 1407.98699953669 1853.305716640431 L 1407.98699953669 1853.305716640431 A 8 8 0 0 1 1415.98699953669 1845.305716640431 L 1681.98699953669 1845.305716640431 Z" fill-opacity="1"/><text fill="rgb(255,255,255)" stroke="none" font-family="Avenir, Helvetica, Arial, sans-serif" font-size="32px" font-style="normal" font-weight="bold" text-decoration="normal" x="1681.98699953669" y="1900.305716640431" text-anchor="middle" dominant-baseline="text-after-edge" fill-opacity="1">container_env</text><path fill="rgb(255,247,224)" stroke="rgb(255,193,7)" paint-order="fill stroke markers" d=" M 2184.9870002519438 752.1057123488966 L 2450.9870002519438 752.1057123488966 L 2450.9870002519438 752.1057123488966 A 8 8 0 0 1 2458.9870002519438 760.1057123488966 L 2458.9870002519438 822.1057123488966 L 2458.9870002519438 822.1057123488966 A 8 8 0 0 1 2450.9870002519438 830.1057123488966 L 1918.9870002519438 830.1057123488966 L 1918.9870002519438 830.1057123488966 A 8 8 0 0 1 1910.9870002519438 822.1057123488966 L 1910.9870002519438 760.1057123488966 L 1910.9870002519438 760.1057123488966 A 8 8 0 0 1 1918.9870002519438 752.1057123488966 L 2184.9870002519438 752.1057123488966 Z" fill-opacity="1" stroke-opacity="1" stroke-miterlimit="10" stroke-width="5"/><text fill="rgb(0,0,0)" stroke="none" font-family="Avenir, Helvetica, Arial, sans-serif" font-size="32px" font-style="normal" font-weight="bold" text-decoration="normal" x="2184.9870002519438" y="807.1057123488966" text-anchor="middle" dominant-baseline="text-after-edge" fill-opacity="1">container_app_environment_id</text><path fill="rgb(225,240,255)" stroke="rgb(29,122,218)" paint-order="fill stroke markers" d=" M 1581.98699953669 885.1057130641524 L 1847.98699953669 885.1057130641524 L 1847.98699953669 885.1057130641524 A 8 8 0 0 1 1855.98699953669 893.1057130641524 L 1855.98699953669 955.1057130641524 L 1855.98699953669 955.1057130641524 A 8 8 0 0 1 1847.98699953669 963.1057130641524 L 1315.98699953669 963.1057130641524 L 1315.98699953669 963.1057130641524 A 8 8 0 0 1 1307.98699953669 955.1057130641524 L 1307.98699953669 893.1057130641524 L 1307.98699953669 893.1057130641524 A 8 8 0 0 1 1315.98699953669 885.1057130641524 L 1581.98699953669 885.1057130641524 Z" fill-opacity="1" stroke-opacity="1" stroke-miterlimit="10" stroke-width="5"/><text fill="rgb(0,0,0)" stroke="none" font-family="Avenir, Helvetica, Arial, sans-serif" font-size="32px" font-style="normal" font-weight="bold" text-decoration="normal" x="1581.98699953669" y="940.1057130641524" text-anchor="middle" dominant-baseline="text-after-edge" fill-opacity="1">resource_group_name</text><path fill="rgb(225,240,255)" stroke="rgb(29,122,218)" paint-order="fill stroke markers" d=" M 2184.9870002519438 885.1057130641524 L 2450.9870002519438 885.1057130641524 L 2450.9870002519438 885.1057130641524 A 8 8 0 0 1 2458.9870002519438 893.1057130641524 L 2458.9870002519438 955.1057130641524 L 2458.9870002519438 955.1057130641524 A 8 8 0 0 1 2450.9870002519438 963.1057130641524 L 1918.9870002519438 963.1057130641524 L 1918.9870002519438 963.1057130641524 A 8 8 0 0 1 1910.9870002519438 955.1057130641524 L 1910.9870002519438 893.1057130641524 L 1910.9870002519438 893.1057130641524 A 8 8 0 0 1 1918.9870002519438 885.1057130641524 L 2184.9870002519438 885.1057130641524 Z" fill-opacity="1" stroke-opacity="1" stroke-miterlimit="10" stroke-width="5"/><text fill="rgb(0,0,0)" stroke="none" font-family="Avenir, Helvetica, Arial, sans-serif" font-size="32px" font-style="normal" font-weight="bold" text-decoration="normal" x="2184.9870002519438" y="940.1057130641524" text-anchor="middle" dominant-baseline="text-after-edge" fill-opacity="1">tags</text><path fill="rgb(225,240,255)" stroke="rgb(29,122,218)" paint-order="fill stroke markers" d=" M 1581.98699953669 1018.1057137794082 L 1847.98699953669 1018.1057137794082 L 1847.98699953669 1018.1057137794082 A 8 8 0 0 1 1855.98699953669 1026.1057137794082 L 1855.98699953669 1088.1057137794082 L 1855.98699953669 1088.1057137794082 A 8 8 0 0 1 1847.98699953669 1096.1057137794082 L 1315.98699953669 1096.1057137794082 L 1315.98699953669 1096.1057137794082 A 8 8 0 0 1 1307.98699953669 1088.1057137794082 L 1307.98699953669 1026.1057137794082 L 1307.98699953669 1026.1057137794082 A 8 8 0 0 1 1315.98699953669 1018.1057137794082 L 1581.98699953669 1018.1057137794082 Z" fill-opacity="1" stroke-opacity="1" stroke-miterlimit="10" stroke-width="5"/><text fill="rgb(0,0,0)" stroke="none" font-family="Avenir, Helvetica, Arial, sans-serif" font-size="32px" font-style="normal" font-weight="bold" text-decoration="normal" x="1581.98699953669" y="1073.1057137794082" text-anchor="middle" dominant-baseline="text-after-edge" fill-opacity="1">monitoring_enabled</text><path fill="rgb(225,240,255)" stroke="rgb(29,122,218)" paint-order="fill stroke markers" d=" M 2184.9870002519438 1018.1057137794082 L 2450.9870002519438 1018.1057137794082 L 2450.9870002519438 1018.1057137794082 A 8 8 0 0 1 2458.9870002519438 1026.1057137794082 L 2458.9870002519438 1088.1057137794082 L 2458.9870002519438 1088.1057137794082 A 8 8 0 0 1 2450.9870002519438 1096.1057137794082 L 1918.9870002519438 1096.1057137794082 L 1918.9870002519438 1096.1057137794082 A 8 8 0 0 1 1910.9870002519438 1088.1057137794082 L 1910.9870002519438 1026.1057137794082 L 1910.9870002519438 1026.1057137794082 A 8 8 0 0 1 1918.9870002519438 1018.1057137794082 L 2184.9870002519438 1018.1057137794082 Z" fill-opacity="1" stroke-opacity="1" stroke-miterlimit="10" stroke-width="5"/><text fill="rgb(0,0,0)" stroke="none" font-family="Avenir, Helvetica, Arial, sans-serif" font-size="32px" font-style="normal" font-weight="bold" text-decoration="normal" x="2184.9870002519438" y="1073.1057137794082" text-anchor="middle" dominant-baseline="text-after-edge" fill-opacity="1">monitoring_logs_container_app</text><path fill="rgb(225,240,255)" stroke="rgb(29,122,218)" paint-order="fill stroke markers" d=" M 1581.98699953669 1151.1057144946637 L 1847.98699953669 1151.1057144946637 L 1847.98699953669 1151.1057144946637 A 8 8 0 0 1 1855.98699953669 1159.1057144946637 L 1855.98699953669 1221.1057144946637 L 1855.98699953669 1221.1057144946637 A 8 8 0 0 1 1847.98699953669 1229.1057144946637 L 1315.98699953669 1229.1057144946637 L 1315.98699953669 1229.1057144946637 A 8 8 0 0 1 1307.98699953669 1221.1057144946637 L 1307.98699953669 1159.1057144946637 L 1307.98699953669 1159.1057144946637 A 8 8 0 0 1 1315.98699953669 1151.1057144946637 L 1581.98699953669 1151.1057144946637 Z" fill-opacity="1" stroke-opacity="1" stroke-miterlimit="10" stroke-width="5"/><text fill="rgb(0,0,0)" stroke="none" font-family="Avenir, Helvetica, Arial, sans-serif" font-size="32px" font-style="normal" font-weight="bold" text-decoration="normal" x="1581.98699953669" y="1206.1057144946637" text-anchor="middle" dominant-baseline="text-after-edge" fill-opacity="1">location</text><path fill="rgb(255,247,224)" stroke="rgb(255,193,7)" paint-order="fill stroke markers" d=" M 2184.9870002519438 1151.1057144946637 L 2450.9870002519438 1151.1057144946637 L 2450.9870002519438 1151.1057144946637 A 8 8 0 0 1 2458.9870002519438 1159.1057144946637 L 2458.9870002519438 1221.1057144946637 L 2458.9870002519438 1221.1057144946637 A 8 8 0 0 1 2450.9870002519438 1229.1057144946637 L 1918.9870002519438 1229.1057144946637 L 1918.9870002519438 1229.1057144946637 A 8 8 0 0 1 1910.9870002519438 1221.1057144946637 L 1910.9870002519438 1159.1057144946637 L 1910.9870002519438 1159.1057144946637 A 8 8 0 0 1 1918.9870002519438 1151.1057144946637 L 2184.9870002519438 1151.1057144946637 Z" fill-opacity="1" stroke-opacity="1" stroke-miterlimit="10" stroke-width="5"/><text fill="rgb(0,0,0)" stroke="none" font-family="Avenir, Helvetica, Arial, sans-serif" font-size="32px" font-style="normal" font-weight="bold" text-decoration="normal" x="2184.9870002519438" y="1206.1057144946637" text-anchor="middle" dominant-baseline="text-after-edge" fill-opacity="1">container_app_ips</text><path fill="rgb(225,240,255)" stroke="rgb(29,122,218)" paint-order="fill stroke markers" d=" M 1581.98699953669 1284.1057152099197 L 1847.98699953669 1284.1057152099197 L 1847.98699953669 1284.1057152099197 A 8 8 0 0 1 1855.98699953669 1292.1057152099197 L 1855.98699953669 1354.1057152099197 L 1855.98699953669 1354.1057152099197 A 8 8 0 0 1 1847.98699953669 1362.1057152099197 L 1315.98699953669 1362.1057152099197 L 1315.98699953669 1362.1057152099197 A 8 8 0 0 1 1307.98699953669 1354.1057152099197 L 1307.98699953669 1292.1057152099197 L 1307.98699953669 1292.1057152099197 A 8 8 0 0 1 1315.98699953669 1284.1057152099197 L 1581.98699953669 1284.1057152099197 Z" fill-opacity="1" stroke-opacity="1" stroke-miterlimit="10" stroke-width="5"/><text fill="rgb(0,0,0)" stroke="none" font-family="Avenir, Helvetica, Arial, sans-serif" font-size="32px" font-style="normal" font-weight="bold" text-decoration="normal" x="1581.98699953669" y="1339.1057152099197" text-anchor="middle" dominant-baseline="text-after-edge" fill-opacity="1">monitoring_metrics_container_app</text><path fill="rgb(225,240,255)" stroke="rgb(29,122,218)" paint-order="fill stroke markers" d=" M 2184.9870002519438 1284.1057152099197 L 2450.9870002519438 1284.1057152099197 L 2450.9870002519438 1284.1057152099197 A 8 8 0 0 1 2458.9870002519438 1292.1057152099197 L 2458.9870002519438 1354.1057152099197 L 2458.9870002519438 1354.1057152099197 A 8 8 0 0 1 2450.9870002519438 1362.1057152099197 L 1918.9870002519438 1362.1057152099197 L 1918.9870002519438 1362.1057152099197 A 8 8 0 0 1 1910.9870002519438 1354.1057152099197 L 1910.9870002519438 1292.1057152099197 L 1910.9870002519438 1292.1057152099197 A 8 8 0 0 1 1918.9870002519438 1284.1057152099197 L 2184.9870002519438 1284.1057152099197 Z" fill-opacity="1" stroke-opacity="1" stroke-miterlimit="10" stroke-width="5"/><text fill="rgb(0,0,0)" stroke="none" font-family="Avenir, Helvetica, Arial, sans-serif" font-size="32px" font-style="normal" font-weight="bold" text-decoration="normal" x="2184.9870002519438" y="1339.1057152099197" text-anchor="middle" dominant-baseline="text-after-edge" fill-opacity="1">resource_suffix</text><path fill="rgb(225,240,255)" stroke="rgb(29,122,218)" paint-order="fill stroke markers" d=" M 1581.98699953669 1417.1057159251754 L 1847.98699953669 1417.1057159251754 L 1847.98699953669 1417.1057159251754 A 8 8 0 0 1 1855.98699953669 1425.1057159251754 L 1855.98699953669 1487.1057159251754 L 1855.98699953669 1487.1057159251754 A 8 8 0 0 1 1847.98699953669 1495.1057159251754 L 1315.98699953669 1495.1057159251754 L 1315.98699953669 1495.1057159251754 A 8 8 0 0 1 1307.98699953669 1487.1057159251754 L 1307.98699953669 1425.1057159251754 L 1307.98699953669 1425.1057159251754 A 8 8 0 0 1 1315.98699953669 1417.1057159251754 L 1581.98699953669 1417.1057159251754 Z" fill-opacity="1" stroke-opacity="1" stroke-miterlimit="10" stroke-width="5"/><text fill="rgb(0,0,0)" stroke="none" font-family="Avenir, Helvetica, Arial, sans-serif" font-size="32px" font-style="normal" font-weight="bold" text-decoration="normal" x="1581.98699953669" y="1472.1057159251754" text-anchor="middle" dominant-baseline="text-after-edge" fill-opacity="1">log_analytics_workspace_id</text><g transform="scale(8,8) translate(-20.151625147320715,21.82571386479816)"/></g></svg>