<svg version="1.1" xmlns="http://www.w3.org/2000/svg" xmlns:xlink="http://www.w3.org/1999/xlink" width="386" height="264.625"><defs/><g transform="translate(113.46483026875909,29.208064535736256) scale(0.125,0.125)"><path fill="rgb(244,236,255)" stroke="rgb(255,255,255)" paint-order="fill stroke markers" d=" M 636.131358565183 -231.66451628589004 L 2169.9813592804385 -231.66451628589004 L 2169.9813592804385 -231.66451628589004 A 8 8 0 0 1 2177.9813592804385 -223.66451628589004 L 2177.9813592804385 1872.5354894361558 L 2177.9813592804385 1872.5354894361558 A 8 8 0 0 1 2169.9813592804385 1880.5354894361558 L -897.7186421500727 1880.5354894361558 L -897.7186421500727 1880.5354894361558 A 8 8 0 0 1 -905.7186421500727 1872.5354894361558 L -905.7186421500727 -223.66451628589004 L -905.7186421500727 -223.66451628589004 A 8 8 0 0 1 -897.7186421500727 -231.66451628589004 L 636.131358565183 -231.66451628589004 Z" fill-opacity="1" stroke-opacity="1" stroke-miterlimit="10" stroke-width="2"/><text fill="rgb(0,0,0)" stroke="none" font-family="Avenir, Helvetica, Arial, sans-serif" font-size="32px" font-style="normal" font-weight="bold" text-decoration="normal" x="636.131358565183" y="-156.66451628589016" text-anchor="middle" dominant-baseline="text-after-edge" fill-opacity="1">.</text><path fill="rgb(255,255,255)" stroke="rgb(211,211,211)" paint-order="fill stroke markers" d=" M -267.7186421500728 -27.16451628589016 L 160.7813578499272 -27.16451628589016 L 160.7813578499272 -27.16451628589016 A 8 8 0 0 1 168.7813578499272 -19.16451628589016 L 168.7813578499272 738.5354844293657 L 168.7813578499272 738.5354844293657 A 8 8 0 0 1 160.7813578499272 746.5354844293657 L -696.2186421500728 746.5354844293657 L -696.2186421500728 746.5354844293657 A 8 8 0 0 1 -704.2186421500728 738.5354844293657 L -704.2186421500728 -19.16451628589016 L -704.2186421500728 -19.16451628589016 A 8 8 0 0 1 -696.2186421500728 -27.16451628589016 L -267.7186421500728 -27.16451628589016 Z" fill-opacity="1" stroke-opacity="1" stroke-miterlimit="10"/><text fill="rgb(0,0,0)" stroke="none" font-family="Avenir, Helvetica, Arial, sans-serif" font-size="32px" font-style="normal" font-weight="bold" text-decoration="normal" x="-267.7186421500728" y="47.83548371410984" text-anchor="middle" dominant-baseline="text-after-edge" fill-opacity="1">unknown file</text><path fill="rgb(255,255,255)" stroke="rgb(132,80,186)" paint-order="fill stroke markers" d=" M 1214.9813589228108 -25.66451628589016 L 1963.9813592804387 -25.66451628589016 L 1963.9813592804387 -25.66451628589016 A 8 8 0 0 1 1971.9813592804387 -17.66451628589016 L 1971.9813592804387 1666.5354894361558 L 1971.9813592804387 1666.5354894361558 A 8 8 0 0 1 1963.9813592804387 1674.5354894361558 L 465.981358565183 1674.5354894361558 L 465.981358565183 1674.5354894361558 A 8 8 0 0 1 457.981358565183 1666.5354894361558 L 457.981358565183 -17.66451628589016 L 457.981358565183 -17.66451628589016 A 8 8 0 0 1 465.981358565183 -25.66451628589016 L 1214.9813589228108 -25.66451628589016 Z" fill-opacity="0.4" stroke-opacity="0.4" stroke-miterlimit="10" stroke-width="10"/><text fill="rgb(132,80,186)" stroke="none" font-family="Avenir, Helvetica, Arial, sans-serif" font-size="32px" font-style="normal" font-weight="bold" text-decoration="normal" x="1214.9813589228108" y="34.33548371410984" text-anchor="middle" dominant-baseline="text-after-edge" fill-opacity="0.4">container_app</text><path fill="rgb(255,255,255)" stroke="rgb(0,0,0)" paint-order="fill stroke markers" d=" M -267.7186421500728 447.03548442936574 L 57.28135784992719 447.03548442936574 L 57.28135784992719 447.03548442936574 A 8 8 0 0 1 65.28135784992719 455.03548442936574 L 65.28135784992719 635.0354844293657 L 65.28135784992719 635.0354844293657 A 8 8 0 0 1 57.28135784992719 643.0354844293657 L -592.7186421500728 643.0354844293657 L -592.7186421500728 643.0354844293657 A 8 8 0 0 1 -600.7186421500728 635.0354844293657 L -600.7186421500728 455.03548442936574 L -600.7186421500728 455.03548442936574 A 8 8 0 0 1 -592.7186421500728 447.03548442936574 L -267.7186421500728 447.03548442936574 Z" fill-opacity="1" stroke-opacity="1" stroke-miterlimit="10" stroke-width="5"/><rect fill="rgb(255,255,255)" stroke="none" x="-469.7186421500728" y="398.03548442936574" width="404" height="96" fill-opacity="1"/><text fill="rgb(0,0,0)" stroke="none" font-family="Avenir, Helvetica, Arial, sans-serif" font-size="32px" font-style="normal" font-weight="bold" text-decoration="normal" x="-267.7186421500728" y="462.03548442936574" text-anchor="middle" dominant-baseline="text-after-edge" fill-opacity="1">azurerm_client_config</text><path fill="rgb(255,255,255)" stroke="rgb(0,0,0)" paint-order="fill stroke markers" d=" M -267.7186421500728 121.83548371410984 L 54.28135784992719 121.83548371410984 L 54.28135784992719 121.83548371410984 A 8 8 0 0 1 62.28135784992719 129.83548371410984 L 62.28135784992719 303.83548371410984 L 62.28135784992719 303.83548371410984 A 8 8 0 0 1 54.28135784992719 311.83548371410984 L -589.7186421500728 311.83548371410984 L -589.7186421500728 311.83548371410984 A 8 8 0 0 1 -597.7186421500728 303.83548371410984 L -597.7186421500728 129.83548371410984 L -597.7186421500728 129.83548371410984 A 8 8 0 0 1 -589.7186421500728 121.83548371410984 L -267.7186421500728 121.83548371410984 Z" fill-opacity="0.4" stroke-opacity="0.4" stroke-miterlimit="10" stroke-width="5"/><rect fill="rgb(255,255,255)" stroke="none" x="-492.7186421500728" y="72.83548371410984" width="450" height="96" fill-opacity="0.4"/><text fill="rgb(0,0,0)" stroke="none" font-family="Avenir, Helvetica, Arial, sans-serif" font-size="32px" font-style="normal" font-weight="bold" text-decoration="normal" x="-267.7186421500728" y="136.83548371410984" text-anchor="middle" dominant-baseline="text-after-edge" fill-opacity="0.4">azurerm_resource_group</text><path fill="rgb(255,255,255)" stroke="rgb(0,0,0)" paint-order="fill stroke markers" d=" M 1538.4813592804387 1052.8354887209002 L 1860.4813592804387 1052.8354887209002 L 1860.4813592804387 1052.8354887209002 A 8 8 0 0 1 1868.4813592804387 1060.8354887209002 L 1868.4813592804387 1234.8354887209002 L 1868.4813592804387 1234.8354887209002 A 8 8 0 0 1 1860.4813592804387 1242.8354887209002 L 1216.4813592804387 1242.8354887209002 L 1216.4813592804387 1242.8354887209002 A 8 8 0 0 1 1208.4813592804387 1234.8354887209002 L 1208.4813592804387 1060.8354887209002 L 1208.4813592804387 1060.8354887209002 A 8 8 0 0 1 1216.4813592804387 1052.8354887209002 L 1538.4813592804387 1052.8354887209002 Z" fill-opacity="0.16000000000000003" stroke-opacity="0.16000000000000003" stroke-miterlimit="10" stroke-width="5"/><rect fill="rgb(255,255,255)" stroke="none" x="1325.9813592804387" y="1003.8354887209002" width="425" height="96" fill-opacity="0.16000000000000003"/><text fill="rgb(0,0,0)" stroke="none" font-family="Avenir, Helvetica, Arial, sans-serif" font-size="32px" font-style="normal" font-weight="bold" text-decoration="normal" x="1538.4813592804387" y="1067.8354887209002" text-anchor="middle" dominant-baseline="text-after-edge" fill-opacity="0.16000000000000003">azurerm_container_app</text><path fill="rgb(255,255,255)" stroke="rgb(0,0,0)" paint-order="fill stroke markers" d=" M 935.481358565183 1381.0354894361558 L 1257.481358565183 1381.0354894361558 L 1257.481358565183 1381.0354894361558 A 8 8 0 0 1 1265.481358565183 1389.0354894361558 L 1265.481358565183 1563.0354894361558 L 1265.481358565183 1563.0354894361558 A 8 8 0 0 1 1257.481358565183 1571.0354894361558 L 613.481358565183 1571.0354894361558 L 613.481358565183 1571.0354894361558 A 8 8 0 0 1 605.481358565183 1563.0354894361558 L 605.481358565183 1389.0354894361558 L 605.481358565183 1389.0354894361558 A 8 8 0 0 1 613.481358565183 1381.0354894361558 L 935.481358565183 1381.0354894361558 Z" fill-opacity="0.16000000000000003" stroke-opacity="0.16000000000000003" stroke-miterlimit="10" stroke-width="5"/><rect fill="rgb(255,255,255)" stroke="none" x="617.981358565183" y="1332.0354894361558" width="635" height="96" fill-opacity="0.16000000000000003"/><text fill="rgb(0,0,0)" stroke="none" font-family="Avenir, Helvetica, Arial, sans-serif" font-size="32px" font-style="normal" font-weight="bold" text-decoration="normal" x="935.481358565183" y="1396.0354894361558" text-anchor="middle" dominant-baseline="text-after-edge" fill-opacity="0.16000000000000003">azurerm_container_app_environment</text><path fill="rgb(255,236,236)" stroke="rgb(220,71,125)" paint-order="fill stroke markers" d=" M -267.7186421500728 506.03548442936574 L -1.7186421500728102 506.03548442936574 L -1.7186421500728097 506.03548442936574 A 8 8 0 0 1 6.28135784992719 514.0354844293657 L 6.28135784992719 576.0354844293657 L 6.28135784992719 576.0354844293657 A 8 8 0 0 1 -1.7186421500728097 584.0354844293657 L -533.7186421500728 584.0354844293657 L -533.7186421500728 584.0354844293657 A 8 8 0 0 1 -541.7186421500728 576.0354844293657 L -541.7186421500728 514.0354844293657 L -541.7186421500728 514.0354844293657 A 8 8 0 0 1 -533.7186421500728 506.03548442936574 L -267.7186421500728 506.03548442936574 Z" fill-opacity="0.4" stroke-opacity="0.4" stroke-miterlimit="10" stroke-width="5"/><text fill="rgb(0,0,0)" stroke="none" font-family="Avenir, Helvetica, Arial, sans-serif" font-size="32px" font-style="normal" font-weight="bold" text-decoration="normal" x="-267.7186421500728" y="561.0354844293657" text-anchor="middle" dominant-baseline="text-after-edge" fill-opacity="0.4">context</text><path fill="rgb(40,167,69)" stroke="none" paint-order="stroke fill markers" d=" M -267.7186421500728 177.83548371410984 L -1.7186421500728102 177.83548371410984 L -1.7186421500728097 177.83548371410984 A 8 8 0 0 1 6.28135784992719 185.83548371410984 L 6.28135784992719 247.83548371410984 L 6.28135784992719 247.83548371410984 A 8 8 0 0 1 -1.7186421500728097 255.83548371410984 L -533.7186421500728 255.83548371410984 L -533.7186421500728 255.83548371410984 A 8 8 0 0 1 -541.7186421500728 247.83548371410984 L -541.7186421500728 185.83548371410984 L -541.7186421500728 185.83548371410984 A 8 8 0 0 1 -533.7186421500728 177.83548371410984 L -267.7186421500728 177.83548371410984 Z" fill-opacity="0.16000000000000003"/><text fill="rgb(255,255,255)" stroke="none" font-family="Avenir, Helvetica, Arial, sans-serif" font-size="32px" font-style="normal" font-weight="bold" text-decoration="normal" x="-267.7186421500728" y="232.83548371410984" text-anchor="middle" dominant-baseline="text-after-edge" fill-opacity="0.16000000000000003">test</text><path fill="rgb(255,247,224)" stroke="rgb(255,193,7)" paint-order="fill stroke markers" d=" M 835.481358565183 77.83548371410984 L 1101.481358565183 77.83548371410984 L 1101.481358565183 77.83548371410984 A 8 8 0 0 1 1109.481358565183 85.83548371410984 L 1109.481358565183 147.83548371410984 L 1109.481358565183 147.83548371410984 A 8 8 0 0 1 1101.481358565183 155.83548371410984 L 569.481358565183 155.83548371410984 L 569.481358565183 155.83548371410984 A 8 8 0 0 1 561.481358565183 147.83548371410984 L 561.481358565183 85.83548371410984 L 561.481358565183 85.83548371410984 A 8 8 0 0 1 569.481358565183 77.83548371410984 L 835.481358565183 77.83548371410984 Z" fill-opacity="0.16000000000000003" stroke-opacity="0.16000000000000003" stroke-miterlimit="10" stroke-width="5"/><text fill="rgb(0,0,0)" stroke="none" font-family="Avenir, Helvetica, Arial, sans-serif" font-size="32px" font-style="normal" font-weight="bold" text-decoration="normal" x="835.481358565183" y="132.83548371410984" text-anchor="middle" dominant-baseline="text-after-edge" fill-opacity="0.16000000000000003">container_app_fqdn</text><path fill="rgb(225,240,255)" stroke="rgb(29,122,218)" paint-order="fill stroke markers" d=" M 1438.4813592804387 77.83548371410984 L 1704.4813592804387 77.83548371410984 L 1704.4813592804387 77.83548371410984 A 8 8 0 0 1 1712.4813592804387 85.83548371410984 L 1712.4813592804387 147.83548371410984 L 1712.4813592804387 147.83548371410984 A 8 8 0 0 1 1704.4813592804387 155.83548371410984 L 1172.4813592804387 155.83548371410984 L 1172.4813592804387 155.83548371410984 A 8 8 0 0 1 1164.4813592804387 147.83548371410984 L 1164.4813592804387 85.83548371410984 L 1164.4813592804387 85.83548371410984 A 8 8 0 0 1 1172.4813592804387 77.83548371410984 L 1438.4813592804387 77.83548371410984 Z" fill-opacity="0.16000000000000003" stroke-opacity="0.16000000000000003" stroke-miterlimit="10" stroke-width="5"/><text fill="rgb(0,0,0)" stroke="none" font-family="Avenir, Helvetica, Arial, sans-serif" font-size="32px" font-style="normal" font-weight="bold" text-decoration="normal" x="1438.4813592804387" y="132.83548371410984" text-anchor="middle" dominant-baseline="text-after-edge" fill-opacity="0.16000000000000003">private_networking_enabled</text><path fill="rgb(255,247,224)" stroke="rgb(255,193,7)" paint-order="fill stroke markers" d=" M 835.481358565183 210.83548442936558 L 1101.481358565183 210.83548442936558 L 1101.481358565183 210.83548442936558 A 8 8 0 0 1 1109.481358565183 218.83548442936558 L 1109.481358565183 280.8354844293656 L 1109.481358565183 280.8354844293656 A 8 8 0 0 1 1101.481358565183 288.8354844293656 L 569.481358565183 288.8354844293656 L 569.481358565183 288.8354844293656 A 8 8 0 0 1 561.481358565183 280.8354844293656 L 561.481358565183 218.83548442936558 L 561.481358565183 218.83548442936558 A 8 8 0 0 1 569.481358565183 210.83548442936558 L 835.481358565183 210.83548442936558 Z" fill-opacity="0.16000000000000003" stroke-opacity="0.16000000000000003" stroke-miterlimit="10" stroke-width="5"/><text fill="rgb(0,0,0)" stroke="none" font-family="Avenir, Helvetica, Arial, sans-serif" font-size="32px" font-style="normal" font-weight="bold" text-decoration="normal" x="835.481358565183" y="265.8354844293656" text-anchor="middle" dominant-baseline="text-after-edge" fill-opacity="0.16000000000000003">container_app_name</text><path fill="rgb(225,240,255)" stroke="rgb(29,122,218)" paint-order="fill stroke markers" d=" M 1438.4813592804387 210.83548442936558 L 1704.4813592804387 210.83548442936558 L 1704.4813592804387 210.83548442936558 A 8 8 0 0 1 1712.4813592804387 218.83548442936558 L 1712.4813592804387 280.8354844293656 L 1712.4813592804387 280.8354844293656 A 8 8 0 0 1 1704.4813592804387 288.8354844293656 L 1172.4813592804387 288.8354844293656 L 1172.4813592804387 288.8354844293656 A 8 8 0 0 1 1164.4813592804387 280.8354844293656 L 1164.4813592804387 218.83548442936558 L 1164.4813592804387 218.83548442936558 A 8 8 0 0 1 1172.4813592804387 210.83548442936558 L 1438.4813592804387 210.83548442936558 Z" fill-opacity="0.16000000000000003" stroke-opacity="0.16000000000000003" stroke-miterlimit="10" stroke-width="5"/><text fill="rgb(0,0,0)" stroke="none" font-family="Avenir, Helvetica, Arial, sans-serif" font-size="32px" font-style="normal" font-weight="bold" text-decoration="normal" x="1438.4813592804387" y="265.8354844293656" text-anchor="middle" dominant-baseline="text-after-edge" fill-opacity="0.16000000000000003">container_app_monitoring_metrics</text><path fill="rgb(225,240,255)" stroke="rgb(29,122,218)" paint-order="fill stroke markers" d=" M 835.481358565183 343.8354851446213 L 1101.481358565183 343.8354851446213 L 1101.481358565183 343.8354851446213 A 8 8 0 0 1 1109.481358565183 351.8354851446213 L 1109.481358565183 413.8354851446213 L 1109.481358565183 413.8354851446213 A 8 8 0 0 1 1101.481358565183 421.8354851446213 L 569.481358565183 421.8354851446213 L 569.481358565183 421.8354851446213 A 8 8 0 0 1 561.481358565183 413.8354851446213 L 561.481358565183 351.8354851446213 L 561.481358565183 351.8354851446213 A 8 8 0 0 1 569.481358565183 343.8354851446213 L 835.481358565183 343.8354851446213 Z" fill-opacity="0.16000000000000003" stroke-opacity="0.16000000000000003" stroke-miterlimit="10" stroke-width="5"/><text fill="rgb(0,0,0)" stroke="none" font-family="Avenir, Helvetica, Arial, sans-serif" font-size="32px" font-style="normal" font-weight="bold" text-decoration="normal" x="835.481358565183" y="398.8354851446213" text-anchor="middle" dominant-baseline="text-after-edge" fill-opacity="0.16000000000000003">container_app_revision_mode</text><path fill="rgb(40,167,69)" stroke="none" paint-order="stroke fill markers" d=" M 1538.4813592804387 1108.8354887209002 L 1804.4813592804387 1108.8354887209002 L 1804.4813592804387 1108.8354887209002 A 8 8 0 0 1 1812.4813592804387 1116.8354887209002 L 1812.4813592804387 1178.8354887209002 L 1812.4813592804387 1178.8354887209002 A 8 8 0 0 1 1804.4813592804387 1186.8354887209002 L 1272.4813592804387 1186.8354887209002 L 1272.4813592804387 1186.8354887209002 A 8 8 0 0 1 1264.4813592804387 1178.8354887209002 L 1264.4813592804387 1116.8354887209002 L 1264.4813592804387 1116.8354887209002 A 8 8 0 0 1 1272.4813592804387 1108.8354887209002 L 1538.4813592804387 1108.8354887209002 Z" fill-opacity="0.06400000000000002"/><text fill="rgb(255,255,255)" stroke="none" font-family="Avenir, Helvetica, Arial, sans-serif" font-size="32px" font-style="normal" font-weight="bold" text-decoration="normal" x="1538.4813592804387" y="1163.8354887209002" text-anchor="middle" dominant-baseline="text-after-edge" fill-opacity="0.06400000000000002">container_app</text><path fill="rgb(40,167,69)" stroke="none" paint-order="stroke fill markers" d=" M 935.481358565183 1437.0354894361558 L 1201.481358565183 1437.0354894361558 L 1201.481358565183 1437.0354894361558 A 8 8 0 0 1 1209.481358565183 1445.0354894361558 L 1209.481358565183 1507.0354894361558 L 1209.481358565183 1507.0354894361558 A 8 8 0 0 1 1201.481358565183 1515.0354894361558 L 669.481358565183 1515.0354894361558 L 669.481358565183 1515.0354894361558 A 8 8 0 0 1 661.481358565183 1507.0354894361558 L 661.481358565183 1445.0354894361558 L 661.481358565183 1445.0354894361558 A 8 8 0 0 1 669.481358565183 1437.0354894361558 L 935.481358565183 1437.0354894361558 Z" fill-opacity="0.06400000000000002"/><text fill="rgb(255,255,255)" stroke="none" font-family="Avenir, Helvetica, Arial, sans-serif" font-size="32px" font-style="normal" font-weight="bold" text-decoration="normal" x="935.481358565183" y="1492.0354894361558" text-anchor="middle" dominant-baseline="text-after-edge" fill-opacity="0.06400000000000002">container_env</text><path fill="rgb(255,247,224)" stroke="rgb(255,193,7)" paint-order="fill stroke markers" d=" M 1438.4813592804387 343.8354851446213 L 1704.4813592804387 343.8354851446213 L 1704.4813592804387 343.8354851446213 A 8 8 0 0 1 1712.4813592804387 351.8354851446213 L 1712.4813592804387 413.8354851446213 L 1712.4813592804387 413.8354851446213 A 8 8 0 0 1 1704.4813592804387 421.8354851446213 L 1172.4813592804387 421.8354851446213 L 1172.4813592804387 421.8354851446213 A 8 8 0 0 1 1164.4813592804387 413.8354851446213 L 1164.4813592804387 351.8354851446213 L 1164.4813592804387 351.8354851446213 A 8 8 0 0 1 1172.4813592804387 343.8354851446213 L 1438.4813592804387 343.8354851446213 Z" fill-opacity="0.16000000000000003" stroke-opacity="0.16000000000000003" stroke-miterlimit="10" stroke-width="5"/><text fill="rgb(0,0,0)" stroke="none" font-family="Avenir, Helvetica, Arial, sans-serif" font-size="32px" font-style="normal" font-weight="bold" text-decoration="normal" x="1438.4813592804387" y="398.8354851446213" text-anchor="middle" dominant-baseline="text-after-edge" fill-opacity="0.16000000000000003">container_app_environment_id</text><path fill="rgb(225,240,255)" stroke="rgb(29,122,218)" paint-order="fill stroke markers" d=" M 835.481358565183 476.83548585987705 L 1101.481358565183 476.83548585987705 L 1101.481358565183 476.83548585987705 A 8 8 0 0 1 1109.481358565183 484.83548585987705 L 1109.481358565183 546.835485859877 L 1109.481358565183 546.835485859877 A 8 8 0 0 1 1101.481358565183 554.835485859877 L 569.481358565183 554.835485859877 L 569.481358565183 554.835485859877 A 8 8 0 0 1 561.481358565183 546.835485859877 L 561.481358565183 484.83548585987705 L 561.481358565183 484.83548585987705 A 8 8 0 0 1 569.481358565183 476.83548585987705 L 835.481358565183 476.83548585987705 Z" fill-opacity="0.16000000000000003" stroke-opacity="0.16000000000000003" stroke-miterlimit="10" stroke-width="5"/><text fill="rgb(0,0,0)" stroke="none" font-family="Avenir, Helvetica, Arial, sans-serif" font-size="32px" font-style="normal" font-weight="bold" text-decoration="normal" x="835.481358565183" y="531.835485859877" text-anchor="middle" dominant-baseline="text-after-edge" fill-opacity="0.16000000000000003">resource_group_name</text><path fill="rgb(225,240,255)" stroke="rgb(29,122,218)" paint-order="fill stroke markers" d=" M 1438.4813592804387 476.83548585987705 L 1704.4813592804387 476.83548585987705 L 1704.4813592804387 476.83548585987705 A 8 8 0 0 1 1712.4813592804387 484.83548585987705 L 1712.4813592804387 546.835485859877 L 1712.4813592804387 546.835485859877 A 8 8 0 0 1 1704.4813592804387 554.835485859877 L 1172.4813592804387 554.835485859877 L 1172.4813592804387 554.835485859877 A 8 8 0 0 1 1164.4813592804387 546.835485859877 L 1164.4813592804387 484.83548585987705 L 1164.4813592804387 484.83548585987705 A 8 8 0 0 1 1172.4813592804387 476.83548585987705 L 1438.4813592804387 476.83548585987705 Z" fill-opacity="0.16000000000000003" stroke-opacity="0.16000000000000003" stroke-miterlimit="10" stroke-width="5"/><text fill="rgb(0,0,0)" stroke="none" font-family="Avenir, Helvetica, Arial, sans-serif" font-size="32px" font-style="normal" font-weight="bold" text-decoration="normal" x="1438.4813592804387" y="531.835485859877" text-anchor="middle" dominant-baseline="text-after-edge" fill-opacity="0.16000000000000003">tags</text><path fill="rgb(225,240,255)" stroke="rgb(29,122,218)" paint-order="fill stroke markers" d=" M 835.481358565183 609.8354865751329 L 1101.481358565183 609.8354865751329 L 1101.481358565183 609.8354865751329 A 8 8 0 0 1 1109.481358565183 617.8354865751329 L 1109.481358565183 679.8354865751329 L 1109.481358565183 679.8354865751329 A 8 8 0 0 1 1101.481358565183 687.8354865751329 L 569.481358565183 687.8354865751329 L 569.481358565183 687.8354865751329 A 8 8 0 0 1 561.481358565183 679.8354865751329 L 561.481358565183 617.8354865751329 L 561.481358565183 617.8354865751329 A 8 8 0 0 1 569.481358565183 609.8354865751329 L 835.481358565183 609.8354865751329 Z" fill-opacity="0.16000000000000003" stroke-opacity="0.16000000000000003" stroke-miterlimit="10" stroke-width="5"/><text fill="rgb(0,0,0)" stroke="none" font-family="Avenir, Helvetica, Arial, sans-serif" font-size="32px" font-style="normal" font-weight="bold" text-decoration="normal" x="835.481358565183" y="664.8354865751329" text-anchor="middle" dominant-baseline="text-after-edge" fill-opacity="0.16000000000000003">monitoring_enabled</text><path fill="rgb(225,240,255)" stroke="rgb(29,122,218)" paint-order="fill stroke markers" d=" M 1438.4813592804387 609.8354865751329 L 1704.4813592804387 609.8354865751329 L 1704.4813592804387 609.8354865751329 A 8 8 0 0 1 1712.4813592804387 617.8354865751329 L 1712.4813592804387 679.8354865751329 L 1712.4813592804387 679.8354865751329 A 8 8 0 0 1 1704.4813592804387 687.8354865751329 L 1172.4813592804387 687.8354865751329 L 1172.4813592804387 687.8354865751329 A 8 8 0 0 1 1164.4813592804387 679.8354865751329 L 1164.4813592804387 617.8354865751329 L 1164.4813592804387 617.8354865751329 A 8 8 0 0 1 1172.4813592804387 609.8354865751329 L 1438.4813592804387 609.8354865751329 Z" fill-opacity="0.16000000000000003" stroke-opacity="0.16000000000000003" stroke-miterlimit="10" stroke-width="5"/><text fill="rgb(0,0,0)" stroke="none" font-family="Avenir, Helvetica, Arial, sans-serif" font-size="32px" font-style="normal" font-weight="bold" text-decoration="normal" x="1438.4813592804387" y="664.8354865751329" text-anchor="middle" dominant-baseline="text-after-edge" fill-opacity="0.16000000000000003">monitoring_logs_container_app</text><path fill="rgb(225,240,255)" stroke="rgb(29,122,218)" paint-order="fill stroke markers" d=" M 835.481358565183 742.8354872903884 L 1101.481358565183 742.8354872903884 L 1101.481358565183 742.8354872903884 A 8 8 0 0 1 1109.481358565183 750.8354872903884 L 1109.481358565183 812.8354872903884 L 1109.481358565183 812.8354872903884 A 8 8 0 0 1 1101.481358565183 820.8354872903884 L 569.481358565183 820.8354872903884 L 569.481358565183 820.8354872903884 A 8 8 0 0 1 561.481358565183 812.8354872903884 L 561.481358565183 750.8354872903884 L 561.481358565183 750.8354872903884 A 8 8 0 0 1 569.481358565183 742.8354872903884 L 835.481358565183 742.8354872903884 Z" fill-opacity="0.16000000000000003" stroke-opacity="0.16000000000000003" stroke-miterlimit="10" stroke-width="5"/><text fill="rgb(0,0,0)" stroke="none" font-family="Avenir, Helvetica, Arial, sans-serif" font-size="32px" font-style="normal" font-weight="bold" text-decoration="normal" x="835.481358565183" y="797.8354872903884" text-anchor="middle" dominant-baseline="text-after-edge" fill-opacity="0.16000000000000003">location</text><path fill="rgb(255,247,224)" stroke="rgb(255,193,7)" paint-order="fill stroke markers" d=" M 1438.4813592804387 742.8354872903884 L 1704.4813592804387 742.8354872903884 L 1704.4813592804387 742.8354872903884 A 8 8 0 0 1 1712.4813592804387 750.8354872903884 L 1712.4813592804387 812.8354872903884 L 1712.4813592804387 812.8354872903884 A 8 8 0 0 1 1704.4813592804387 820.8354872903884 L 1172.4813592804387 820.8354872903884 L 1172.4813592804387 820.8354872903884 A 8 8 0 0 1 1164.4813592804387 812.8354872903884 L 1164.4813592804387 750.8354872903884 L 1164.4813592804387 750.8354872903884 A 8 8 0 0 1 1172.4813592804387 742.8354872903884 L 1438.4813592804387 742.8354872903884 Z" fill-opacity="0.16000000000000003" stroke-opacity="0.16000000000000003" stroke-miterlimit="10" stroke-width="5"/><text fill="rgb(0,0,0)" stroke="none" font-family="Avenir, Helvetica, Arial, sans-serif" font-size="32px" font-style="normal" font-weight="bold" text-decoration="normal" x="1438.4813592804387" y="797.8354872903884" text-anchor="middle" dominant-baseline="text-after-edge" fill-opacity="0.16000000000000003">container_app_ips</text><path fill="rgb(225,240,255)" stroke="rgb(29,122,218)" paint-order="fill stroke markers" d=" M 835.481358565183 875.8354880056444 L 1101.481358565183 875.8354880056444 L 1101.481358565183 875.8354880056444 A 8 8 0 0 1 1109.481358565183 883.8354880056444 L 1109.481358565183 945.8354880056444 L 1109.481358565183 945.8354880056444 A 8 8 0 0 1 1101.481358565183 953.8354880056444 L 569.481358565183 953.8354880056444 L 569.481358565183 953.8354880056444 A 8 8 0 0 1 561.481358565183 945.8354880056444 L 561.481358565183 883.8354880056444 L 561.481358565183 883.8354880056444 A 8 8 0 0 1 569.481358565183 875.8354880056444 L 835.481358565183 875.8354880056444 Z" fill-opacity="0.16000000000000003" stroke-opacity="0.16000000000000003" stroke-miterlimit="10" stroke-width="5"/><text fill="rgb(0,0,0)" stroke="none" font-family="Avenir, Helvetica, Arial, sans-serif" font-size="32px" font-style="normal" font-weight="bold" text-decoration="normal" x="835.481358565183" y="930.8354880056444" text-anchor="middle" dominant-baseline="text-after-edge" fill-opacity="0.16000000000000003">monitoring_metrics_container_app</text><path fill="rgb(225,240,255)" stroke="rgb(29,122,218)" paint-order="fill stroke markers" d=" M 1438.4813592804387 875.8354880056444 L 1704.4813592804387 875.8354880056444 L 1704.4813592804387 875.8354880056444 A 8 8 0 0 1 1712.4813592804387 883.8354880056444 L 1712.4813592804387 945.8354880056444 L 1712.4813592804387 945.8354880056444 A 8 8 0 0 1 1704.4813592804387 953.8354880056444 L 1172.4813592804387 953.8354880056444 L 1172.4813592804387 953.8354880056444 A 8 8 0 0 1 1164.4813592804387 945.8354880056444 L 1164.4813592804387 883.8354880056444 L 1164.4813592804387 883.8354880056444 A 8 8 0 0 1 1172.4813592804387 875.8354880056444 L 1438.4813592804387 875.8354880056444 Z" fill-opacity="0.16000000000000003" stroke-opacity="0.16000000000000003" stroke-miterlimit="10" stroke-width="5"/><text fill="rgb(0,0,0)" stroke="none" font-family="Avenir, Helvetica, Arial, sans-serif" font-size="32px" font-style="normal" font-weight="bold" text-decoration="normal" x="1438.4813592804387" y="930.8354880056444" text-anchor="middle" dominant-baseline="text-after-edge" fill-opacity="0.16000000000000003">resource_suffix</text><path fill="rgb(225,240,255)" stroke="rgb(29,122,218)" paint-order="fill stroke markers" d=" M 835.481358565183 1008.8354887209002 L 1101.481358565183 1008.8354887209002 L 1101.481358565183 1008.8354887209002 A 8 8 0 0 1 1109.481358565183 1016.8354887209002 L 1109.481358565183 1078.8354887209002 L 1109.481358565183 1078.8354887209002 A 8 8 0 0 1 1101.481358565183 1086.8354887209002 L 569.481358565183 1086.8354887209002 L 569.481358565183 1086.8354887209002 A 8 8 0 0 1 561.481358565183 1078.8354887209002 L 561.481358565183 1016.8354887209002 L 561.481358565183 1016.8354887209002 A 8 8 0 0 1 569.481358565183 1008.8354887209002 L 835.481358565183 1008.8354887209002 Z" fill-opacity="0.16000000000000003" stroke-opacity="0.16000000000000003" stroke-miterlimit="10" stroke-width="5"/><text fill="rgb(0,0,0)" stroke="none" font-family="Avenir, Helvetica, Arial, sans-serif" font-size="32px" font-style="normal" font-weight="bold" text-decoration="normal" x="835.481358565183" y="1063.8354887209002" text-anchor="middle" dominant-baseline="text-after-edge" fill-opacity="0.16000000000000003">log_analytics_workspace_id</text><g transform="scale(8,8) translate(-113.46483026875909,-29.208064535736256)"/></g></svg>